<svg width="28" height="26" viewBox="0 0 28 26" fill="none" xmlns="http://www.w3.org/2000/svg">
    <path
            d="M13.3375 2.80014C13.5133 2.62458 13.7516 2.52597 14 2.52597C14.2484 2.52597 14.4867 2.62458 14.6625 2.80014L25.525 13.6626C25.6108 13.7548 25.7143 13.8286 25.8293 13.8799C25.9443 13.9311 26.0685 13.9587 26.1944 13.9609C26.3202 13.9631 26.4453 13.9399 26.562 13.8928C26.6787 13.8456 26.7848 13.7755 26.8738 13.6864C26.9628 13.5974 27.033 13.4914 27.0802 13.3746C27.1273 13.2579 27.1505 13.1329 27.1482 13.007C27.146 12.8811 27.1185 12.757 27.0672 12.642C27.016 12.527 26.9421 12.4235 26.85 12.3376L15.9888 1.47514C15.7276 1.21397 15.4175 1.0068 15.0763 0.865459C14.7351 0.724116 14.3694 0.651367 14 0.651367C13.6307 0.651367 13.2649 0.724116 12.9237 0.865459C12.5825 1.0068 12.2724 1.21397 12.0113 1.47514L1.14876 12.3376C0.978068 12.5145 0.883683 12.7514 0.885934 12.9972C0.888185 13.243 0.986892 13.4781 1.16079 13.6518C1.3347 13.8256 1.56988 13.9241 1.81569 13.9261C2.0615 13.9281 2.29828 13.8335 2.47501 13.6626L13.3375 2.80014Z"
            fill="#EAEAEA" />
    <path
            d="M14 4.79059L24.1987 14.9893C24.2362 15.0268 24.2738 15.0618 24.3125 15.0968V22.8443C24.3125 24.1381 23.2625 25.1881 21.9688 25.1881H17.75C17.5014 25.1881 17.2629 25.0893 17.0871 24.9135C16.9113 24.7377 16.8125 24.4992 16.8125 24.2506V18.6256C16.8125 18.3769 16.7137 18.1385 16.5379 17.9627C16.3621 17.7869 16.1236 17.6881 15.875 17.6881H12.125C11.8764 17.6881 11.6379 17.7869 11.4621 17.9627C11.2863 18.1385 11.1875 18.3769 11.1875 18.6256V24.2506C11.1875 24.4992 11.0887 24.7377 10.9129 24.9135C10.7371 25.0893 10.4986 25.1881 10.25 25.1881H6.03125C5.40965 25.1881 4.81351 24.9412 4.37397 24.5016C3.93443 24.0621 3.6875 23.4659 3.6875 22.8443V15.0968C3.72639 15.062 3.76432 15.0262 3.80125 14.9893L14 4.78809V4.79059Z"
            fill="#EAEAEA" />
</svg>