<svg width="17" height="16" viewBox="0 0 17 16" fill="none" xmlns="http://www.w3.org/2000/svg" class="search__img">
    <path
            d="M12.2568 10.1557H11.5059L11.2397 9.91252C12.2034 8.85354 12.7331 7.50157 12.7321 6.10335C12.7321 4.94566 12.3697 3.81398 11.6908 2.8514C11.0119 1.88883 10.0469 1.13859 8.91795 0.695562C7.78897 0.252536 6.54668 0.13662 5.34816 0.362473C4.14964 0.588326 3.04873 1.1458 2.18465 1.96441C1.32057 2.78301 0.732121 3.82598 0.493722 4.96142C0.255322 6.09685 0.377677 7.27377 0.845315 8.34332C1.31295 9.41288 2.10487 10.3271 3.12093 10.9702C4.13698 11.6134 5.33153 11.9567 6.55353 11.9567C8.08391 11.9567 9.49071 11.4254 10.5743 10.5429L10.831 10.795V11.5064L15.5837 16L17 14.6582L12.2568 10.1557ZM6.55353 10.1557C4.18668 10.1557 2.27609 8.34563 2.27609 6.10335C2.27609 3.86107 4.18668 2.05103 6.55353 2.05103C8.92038 2.05103 10.831 3.86107 10.831 6.10335C10.831 8.34563 8.92038 10.1557 6.55353 10.1557Z"
            fill="#EAEAEA" />
</svg>